<?xml version="1.0" encoding="utf-8"?>
<svg xmlns="http://www.w3.org/2000/svg" xmlns:xlink="http://www.w3.org/1999/xlink" width="600" height="400" viewBox="0 0 2400 1600">
<defs>
  <clipPath id="clip330">
    <rect x="0" y="0" width="2400" height="1600"/>
  </clipPath>
</defs>
<path clip-path="url(#clip330)" d="
M0 1600 L2400 1600 L2400 0 L0 0  Z
  " fill="#ffffff" fill-rule="evenodd" fill-opacity="1"/>
<defs>
  <clipPath id="clip331">
    <rect x="480" y="0" width="1681" height="1600"/>
  </clipPath>
</defs>
<path clip-path="url(#clip330)" d="
M224.584 1486.45 L2352.76 1486.45 L2352.76 47.2441 L224.584 47.2441  Z
  " fill="#ffffff" fill-rule="evenodd" fill-opacity="1"/>
<defs>
  <clipPath id="clip332">
    <rect x="224" y="47" width="2129" height="1440"/>
  </clipPath>
</defs>
<polyline clip-path="url(#clip332)" style="stroke:#000000; stroke-linecap:round; stroke-linejoin:round; stroke-width:2; stroke-opacity:0.1; fill:none" points="
  258.741,1486.45 258.741,47.2441 
  "/>
<polyline clip-path="url(#clip332)" style="stroke:#000000; stroke-linecap:round; stroke-linejoin:round; stroke-width:2; stroke-opacity:0.1; fill:none" points="
  780.224,1486.45 780.224,47.2441 
  "/>
<polyline clip-path="url(#clip332)" style="stroke:#000000; stroke-linecap:round; stroke-linejoin:round; stroke-width:2; stroke-opacity:0.1; fill:none" points="
  1301.71,1486.45 1301.71,47.2441 
  "/>
<polyline clip-path="url(#clip332)" style="stroke:#000000; stroke-linecap:round; stroke-linejoin:round; stroke-width:2; stroke-opacity:0.1; fill:none" points="
  1823.19,1486.45 1823.19,47.2441 
  "/>
<polyline clip-path="url(#clip332)" style="stroke:#000000; stroke-linecap:round; stroke-linejoin:round; stroke-width:2; stroke-opacity:0.1; fill:none" points="
  2344.67,1486.45 2344.67,47.2441 
  "/>
<polyline clip-path="url(#clip330)" style="stroke:#000000; stroke-linecap:round; stroke-linejoin:round; stroke-width:4; stroke-opacity:1; fill:none" points="
  224.584,1486.45 2352.76,1486.45 
  "/>
<polyline clip-path="url(#clip330)" style="stroke:#000000; stroke-linecap:round; stroke-linejoin:round; stroke-width:4; stroke-opacity:1; fill:none" points="
  224.584,47.2441 2352.76,47.2441 
  "/>
<polyline clip-path="url(#clip330)" style="stroke:#000000; stroke-linecap:round; stroke-linejoin:round; stroke-width:4; stroke-opacity:1; fill:none" points="
  258.741,1486.45 258.741,1467.55 
  "/>
<polyline clip-path="url(#clip330)" style="stroke:#000000; stroke-linecap:round; stroke-linejoin:round; stroke-width:4; stroke-opacity:1; fill:none" points="
  780.224,1486.45 780.224,1467.55 
  "/>
<polyline clip-path="url(#clip330)" style="stroke:#000000; stroke-linecap:round; stroke-linejoin:round; stroke-width:4; stroke-opacity:1; fill:none" points="
  1301.71,1486.45 1301.71,1467.55 
  "/>
<polyline clip-path="url(#clip330)" style="stroke:#000000; stroke-linecap:round; stroke-linejoin:round; stroke-width:4; stroke-opacity:1; fill:none" points="
  1823.19,1486.45 1823.19,1467.55 
  "/>
<polyline clip-path="url(#clip330)" style="stroke:#000000; stroke-linecap:round; stroke-linejoin:round; stroke-width:4; stroke-opacity:1; fill:none" points="
  2344.67,1486.45 2344.67,1467.55 
  "/>
<path clip-path="url(#clip330)" d="M258.741 1517.37 Q255.13 1517.37 253.301 1520.93 Q251.496 1524.47 251.496 1531.6 Q251.496 1538.71 253.301 1542.27 Q255.13 1545.82 258.741 1545.82 Q262.375 1545.82 264.181 1542.27 Q266.01 1538.71 266.01 1531.6 Q266.01 1524.47 264.181 1520.93 Q262.375 1517.37 258.741 1517.37 M258.741 1513.66 Q264.551 1513.66 267.607 1518.27 Q270.685 1522.85 270.685 1531.6 Q270.685 1540.33 267.607 1544.94 Q264.551 1549.52 258.741 1549.52 Q252.931 1549.52 249.852 1544.94 Q246.797 1540.33 246.797 1531.6 Q246.797 1522.85 249.852 1518.27 Q252.931 1513.66 258.741 1513.66 Z" fill="#000000" fill-rule="evenodd" fill-opacity="1" /><path clip-path="url(#clip330)" d="M758.997 1544.91 L775.317 1544.91 L775.317 1548.85 L753.372 1548.85 L753.372 1544.91 Q756.034 1542.16 760.618 1537.53 Q765.224 1532.88 766.405 1531.53 Q768.65 1529.01 769.53 1527.27 Q770.432 1525.51 770.432 1523.82 Q770.432 1521.07 768.488 1519.33 Q766.567 1517.6 763.465 1517.6 Q761.266 1517.6 758.812 1518.36 Q756.382 1519.13 753.604 1520.68 L753.604 1515.95 Q756.428 1514.82 758.882 1514.24 Q761.335 1513.66 763.372 1513.66 Q768.743 1513.66 771.937 1516.35 Q775.132 1519.03 775.132 1523.52 Q775.132 1525.65 774.321 1527.57 Q773.534 1529.47 771.428 1532.07 Q770.849 1532.74 767.747 1535.95 Q764.645 1539.15 758.997 1544.91 Z" fill="#000000" fill-rule="evenodd" fill-opacity="1" /><path clip-path="url(#clip330)" d="M795.131 1517.37 Q791.52 1517.37 789.692 1520.93 Q787.886 1524.47 787.886 1531.6 Q787.886 1538.71 789.692 1542.27 Q791.52 1545.82 795.131 1545.82 Q798.766 1545.82 800.571 1542.27 Q802.4 1538.71 802.4 1531.6 Q802.4 1524.47 800.571 1520.93 Q798.766 1517.37 795.131 1517.37 M795.131 1513.66 Q800.942 1513.66 803.997 1518.27 Q807.076 1522.85 807.076 1531.6 Q807.076 1540.33 803.997 1544.94 Q800.942 1549.52 795.131 1549.52 Q789.321 1549.52 786.243 1544.94 Q783.187 1540.33 783.187 1531.6 Q783.187 1522.85 786.243 1518.27 Q789.321 1513.66 795.131 1513.66 Z" fill="#000000" fill-rule="evenodd" fill-opacity="1" /><path clip-path="url(#clip330)" d="M1289.88 1518.36 L1278.07 1536.81 L1289.88 1536.81 L1289.88 1518.36 M1288.65 1514.29 L1294.53 1514.29 L1294.53 1536.81 L1299.46 1536.81 L1299.46 1540.7 L1294.53 1540.7 L1294.53 1548.85 L1289.88 1548.85 L1289.88 1540.7 L1274.28 1540.7 L1274.28 1536.19 L1288.65 1514.29 Z" fill="#000000" fill-rule="evenodd" fill-opacity="1" /><path clip-path="url(#clip330)" d="M1317.19 1517.37 Q1313.58 1517.37 1311.75 1520.93 Q1309.95 1524.47 1309.95 1531.6 Q1309.95 1538.71 1311.75 1542.27 Q1313.58 1545.82 1317.19 1545.82 Q1320.83 1545.82 1322.63 1542.27 Q1324.46 1538.71 1324.46 1531.6 Q1324.46 1524.47 1322.63 1520.93 Q1320.83 1517.37 1317.19 1517.37 M1317.19 1513.66 Q1323 1513.66 1326.06 1518.27 Q1329.14 1522.85 1329.14 1531.6 Q1329.14 1540.33 1326.06 1544.94 Q1323 1549.52 1317.19 1549.52 Q1311.38 1549.52 1308.3 1544.94 Q1305.25 1540.33 1305.25 1531.6 Q1305.25 1522.85 1308.3 1518.27 Q1311.38 1513.66 1317.19 1513.66 Z" fill="#000000" fill-rule="evenodd" fill-opacity="1" /><path clip-path="url(#clip330)" d="M1808.6 1529.7 Q1805.45 1529.7 1803.6 1531.86 Q1801.77 1534.01 1801.77 1537.76 Q1801.77 1541.49 1803.6 1543.66 Q1805.45 1545.82 1808.6 1545.82 Q1811.74 1545.82 1813.57 1543.66 Q1815.42 1541.49 1815.42 1537.76 Q1815.42 1534.01 1813.57 1531.86 Q1811.74 1529.7 1808.6 1529.7 M1817.88 1515.05 L1817.88 1519.31 Q1816.12 1518.48 1814.31 1518.04 Q1812.53 1517.6 1810.77 1517.6 Q1806.14 1517.6 1803.69 1520.72 Q1801.26 1523.85 1800.91 1530.17 Q1802.28 1528.15 1804.34 1527.09 Q1806.4 1526 1808.87 1526 Q1814.08 1526 1817.09 1529.17 Q1820.12 1532.32 1820.12 1537.76 Q1820.12 1543.08 1816.97 1546.3 Q1813.83 1549.52 1808.6 1549.52 Q1802.6 1549.52 1799.43 1544.94 Q1796.26 1540.33 1796.26 1531.6 Q1796.26 1523.41 1800.15 1518.55 Q1804.03 1513.66 1810.59 1513.66 Q1812.35 1513.66 1814.13 1514.01 Q1815.93 1514.36 1817.88 1515.05 Z" fill="#000000" fill-rule="evenodd" fill-opacity="1" /><path clip-path="url(#clip330)" d="M1838.18 1517.37 Q1834.57 1517.37 1832.74 1520.93 Q1830.93 1524.47 1830.93 1531.6 Q1830.93 1538.71 1832.74 1542.27 Q1834.57 1545.82 1838.18 1545.82 Q1841.81 1545.82 1843.62 1542.27 Q1845.45 1538.71 1845.45 1531.6 Q1845.45 1524.47 1843.62 1520.93 Q1841.81 1517.37 1838.18 1517.37 M1838.18 1513.66 Q1843.99 1513.66 1847.04 1518.27 Q1850.12 1522.85 1850.12 1531.6 Q1850.12 1540.33 1847.04 1544.94 Q1843.99 1549.52 1838.18 1549.52 Q1832.37 1549.52 1829.29 1544.94 Q1826.23 1540.33 1826.23 1531.6 Q1826.23 1522.85 1829.29 1518.27 Q1832.37 1513.66 1838.18 1513.66 Z" fill="#000000" fill-rule="evenodd" fill-opacity="1" /><path clip-path="url(#clip330)" d="M2329.55 1532.44 Q2326.21 1532.44 2324.29 1534.22 Q2322.39 1536 2322.39 1539.13 Q2322.39 1542.25 2324.29 1544.03 Q2326.21 1545.82 2329.55 1545.82 Q2332.88 1545.82 2334.8 1544.03 Q2336.72 1542.23 2336.72 1539.13 Q2336.72 1536 2334.8 1534.22 Q2332.9 1532.44 2329.55 1532.44 M2324.87 1530.45 Q2321.86 1529.7 2320.17 1527.64 Q2318.5 1525.58 2318.5 1522.62 Q2318.5 1518.48 2321.44 1516.07 Q2324.41 1513.66 2329.55 1513.66 Q2334.71 1513.66 2337.65 1516.07 Q2340.59 1518.48 2340.59 1522.62 Q2340.59 1525.58 2338.9 1527.64 Q2337.23 1529.7 2334.24 1530.45 Q2337.62 1531.23 2339.5 1533.52 Q2341.4 1535.82 2341.4 1539.13 Q2341.4 1544.15 2338.32 1546.83 Q2335.26 1549.52 2329.55 1549.52 Q2323.83 1549.52 2320.75 1546.83 Q2317.69 1544.15 2317.69 1539.13 Q2317.69 1535.82 2319.59 1533.52 Q2321.49 1531.23 2324.87 1530.45 M2323.16 1523.06 Q2323.16 1525.75 2324.82 1527.25 Q2326.51 1528.76 2329.55 1528.76 Q2332.55 1528.76 2334.24 1527.25 Q2335.96 1525.75 2335.96 1523.06 Q2335.96 1520.38 2334.24 1518.87 Q2332.55 1517.37 2329.55 1517.37 Q2326.51 1517.37 2324.82 1518.87 Q2323.16 1520.38 2323.16 1523.06 Z" fill="#000000" fill-rule="evenodd" fill-opacity="1" /><path clip-path="url(#clip330)" d="M2359.71 1517.37 Q2356.1 1517.37 2354.27 1520.93 Q2352.46 1524.47 2352.46 1531.6 Q2352.46 1538.71 2354.27 1542.27 Q2356.1 1545.82 2359.71 1545.82 Q2363.34 1545.82 2365.15 1542.27 Q2366.98 1538.71 2366.98 1531.6 Q2366.98 1524.47 2365.15 1520.93 Q2363.34 1517.37 2359.71 1517.37 M2359.71 1513.66 Q2365.52 1513.66 2368.57 1518.27 Q2371.65 1522.85 2371.65 1531.6 Q2371.65 1540.33 2368.57 1544.94 Q2365.52 1549.52 2359.71 1549.52 Q2353.9 1549.52 2350.82 1544.94 Q2347.76 1540.33 2347.76 1531.6 Q2347.76 1522.85 2350.82 1518.27 Q2353.9 1513.66 2359.71 1513.66 Z" fill="#000000" fill-rule="evenodd" fill-opacity="1" /><polyline clip-path="url(#clip332)" style="stroke:#000000; stroke-linecap:round; stroke-linejoin:round; stroke-width:2; stroke-opacity:0.1; fill:none" points="
  224.584,1422.61 2352.76,1422.61 
  "/>
<polyline clip-path="url(#clip332)" style="stroke:#000000; stroke-linecap:round; stroke-linejoin:round; stroke-width:2; stroke-opacity:0.1; fill:none" points="
  224.584,1077.64 2352.76,1077.64 
  "/>
<polyline clip-path="url(#clip332)" style="stroke:#000000; stroke-linecap:round; stroke-linejoin:round; stroke-width:2; stroke-opacity:0.1; fill:none" points="
  224.584,732.662 2352.76,732.662 
  "/>
<polyline clip-path="url(#clip332)" style="stroke:#000000; stroke-linecap:round; stroke-linejoin:round; stroke-width:2; stroke-opacity:0.1; fill:none" points="
  224.584,387.686 2352.76,387.686 
  "/>
<polyline clip-path="url(#clip330)" style="stroke:#000000; stroke-linecap:round; stroke-linejoin:round; stroke-width:4; stroke-opacity:1; fill:none" points="
  224.584,1486.45 224.584,47.2441 
  "/>
<polyline clip-path="url(#clip330)" style="stroke:#000000; stroke-linecap:round; stroke-linejoin:round; stroke-width:4; stroke-opacity:1; fill:none" points="
  2352.76,1486.45 2352.76,47.2441 
  "/>
<polyline clip-path="url(#clip330)" style="stroke:#000000; stroke-linecap:round; stroke-linejoin:round; stroke-width:4; stroke-opacity:1; fill:none" points="
  224.584,1422.61 243.482,1422.61 
  "/>
<polyline clip-path="url(#clip330)" style="stroke:#000000; stroke-linecap:round; stroke-linejoin:round; stroke-width:4; stroke-opacity:1; fill:none" points="
  224.584,1077.64 243.482,1077.64 
  "/>
<polyline clip-path="url(#clip330)" style="stroke:#000000; stroke-linecap:round; stroke-linejoin:round; stroke-width:4; stroke-opacity:1; fill:none" points="
  224.584,732.662 243.482,732.662 
  "/>
<polyline clip-path="url(#clip330)" style="stroke:#000000; stroke-linecap:round; stroke-linejoin:round; stroke-width:4; stroke-opacity:1; fill:none" points="
  224.584,387.686 243.482,387.686 
  "/>
<path clip-path="url(#clip330)" d="M51.3162 1423.06 L80.992 1423.06 L80.992 1427 L51.3162 1427 L51.3162 1423.06 Z" fill="#000000" fill-rule="evenodd" fill-opacity="1" /><path clip-path="url(#clip330)" d="M101.084 1408.41 Q97.4734 1408.41 95.6447 1411.98 Q93.8391 1415.52 93.8391 1422.65 Q93.8391 1429.75 95.6447 1433.32 Q97.4734 1436.86 101.084 1436.86 Q104.719 1436.86 106.524 1433.32 Q108.353 1429.75 108.353 1422.65 Q108.353 1415.52 106.524 1411.98 Q104.719 1408.41 101.084 1408.41 M101.084 1404.71 Q106.895 1404.71 109.95 1409.31 Q113.029 1413.9 113.029 1422.65 Q113.029 1431.37 109.95 1435.98 Q106.895 1440.56 101.084 1440.56 Q95.2743 1440.56 92.1956 1435.98 Q89.1401 1431.37 89.1401 1422.65 Q89.1401 1413.9 92.1956 1409.31 Q95.2743 1404.71 101.084 1404.71 Z" fill="#000000" fill-rule="evenodd" fill-opacity="1" /><path clip-path="url(#clip330)" d="M121.246 1434.01 L126.131 1434.01 L126.131 1439.89 L121.246 1439.89 L121.246 1434.01 Z" fill="#000000" fill-rule="evenodd" fill-opacity="1" /><path clip-path="url(#clip330)" d="M146.316 1408.41 Q142.705 1408.41 140.876 1411.98 Q139.07 1415.52 139.07 1422.65 Q139.07 1429.75 140.876 1433.32 Q142.705 1436.86 146.316 1436.86 Q149.95 1436.86 151.755 1433.32 Q153.584 1429.75 153.584 1422.65 Q153.584 1415.52 151.755 1411.98 Q149.95 1408.41 146.316 1408.41 M146.316 1404.71 Q152.126 1404.71 155.181 1409.31 Q158.26 1413.9 158.26 1422.65 Q158.26 1431.37 155.181 1435.98 Q152.126 1440.56 146.316 1440.56 Q140.506 1440.56 137.427 1435.98 Q134.371 1431.37 134.371 1422.65 Q134.371 1413.9 137.427 1409.31 Q140.506 1404.71 146.316 1404.71 Z" fill="#000000" fill-rule="evenodd" fill-opacity="1" /><path clip-path="url(#clip330)" d="M177.056 1420.75 Q173.908 1420.75 172.056 1422.9 Q170.228 1425.05 170.228 1428.8 Q170.228 1432.53 172.056 1434.71 Q173.908 1436.86 177.056 1436.86 Q180.204 1436.86 182.033 1434.71 Q183.885 1432.53 183.885 1428.8 Q183.885 1425.05 182.033 1422.9 Q180.204 1420.75 177.056 1420.75 M186.339 1406.1 L186.339 1410.36 Q184.579 1409.52 182.774 1409.08 Q180.991 1408.64 179.232 1408.64 Q174.603 1408.64 172.149 1411.77 Q169.718 1414.89 169.371 1421.21 Q170.737 1419.2 172.797 1418.13 Q174.857 1417.04 177.334 1417.04 Q182.542 1417.04 185.552 1420.22 Q188.584 1423.36 188.584 1428.8 Q188.584 1434.13 185.436 1437.35 Q182.288 1440.56 177.056 1440.56 Q171.061 1440.56 167.89 1435.98 Q164.718 1431.37 164.718 1422.65 Q164.718 1414.45 168.607 1409.59 Q172.496 1404.71 179.047 1404.71 Q180.806 1404.71 182.589 1405.05 Q184.394 1405.4 186.339 1406.1 Z" fill="#000000" fill-rule="evenodd" fill-opacity="1" /><path clip-path="url(#clip330)" d="M50.9921 1078.09 L80.6679 1078.09 L80.6679 1082.02 L50.9921 1082.02 L50.9921 1078.09 Z" fill="#000000" fill-rule="evenodd" fill-opacity="1" /><path clip-path="url(#clip330)" d="M100.76 1063.44 Q97.1493 1063.44 95.3206 1067 Q93.515 1070.54 93.515 1077.67 Q93.515 1084.78 95.3206 1088.34 Q97.1493 1091.88 100.76 1091.88 Q104.395 1091.88 106.2 1088.34 Q108.029 1084.78 108.029 1077.67 Q108.029 1070.54 106.2 1067 Q104.395 1063.44 100.76 1063.44 M100.76 1059.73 Q106.571 1059.73 109.626 1064.34 Q112.705 1068.92 112.705 1077.67 Q112.705 1086.4 109.626 1091 Q106.571 1095.59 100.76 1095.59 Q94.9502 1095.59 91.8715 1091 Q88.816 1086.4 88.816 1077.67 Q88.816 1068.92 91.8715 1064.34 Q94.9502 1059.73 100.76 1059.73 Z" fill="#000000" fill-rule="evenodd" fill-opacity="1" /><path clip-path="url(#clip330)" d="M120.922 1089.04 L125.807 1089.04 L125.807 1094.92 L120.922 1094.92 L120.922 1089.04 Z" fill="#000000" fill-rule="evenodd" fill-opacity="1" /><path clip-path="url(#clip330)" d="M145.992 1063.44 Q142.381 1063.44 140.552 1067 Q138.746 1070.54 138.746 1077.67 Q138.746 1084.78 140.552 1088.34 Q142.381 1091.88 145.992 1091.88 Q149.626 1091.88 151.431 1088.34 Q153.26 1084.78 153.26 1077.67 Q153.26 1070.54 151.431 1067 Q149.626 1063.44 145.992 1063.44 M145.992 1059.73 Q151.802 1059.73 154.857 1064.34 Q157.936 1068.92 157.936 1077.67 Q157.936 1086.4 154.857 1091 Q151.802 1095.59 145.992 1095.59 Q140.181 1095.59 137.103 1091 Q134.047 1086.4 134.047 1077.67 Q134.047 1068.92 137.103 1064.34 Q140.181 1059.73 145.992 1059.73 Z" fill="#000000" fill-rule="evenodd" fill-opacity="1" /><path clip-path="url(#clip330)" d="M179.001 1064.43 L167.195 1082.88 L179.001 1082.88 L179.001 1064.43 M177.774 1060.36 L183.653 1060.36 L183.653 1082.88 L188.584 1082.88 L188.584 1086.77 L183.653 1086.77 L183.653 1094.92 L179.001 1094.92 L179.001 1086.77 L163.399 1086.77 L163.399 1082.25 L177.774 1060.36 Z" fill="#000000" fill-rule="evenodd" fill-opacity="1" /><path clip-path="url(#clip330)" d="M53.0754 733.113 L82.7512 733.113 L82.7512 737.048 L53.0754 737.048 L53.0754 733.113 Z" fill="#000000" fill-rule="evenodd" fill-opacity="1" /><path clip-path="url(#clip330)" d="M102.844 718.46 Q99.2326 718.46 97.4039 722.025 Q95.5984 725.567 95.5984 732.696 Q95.5984 739.803 97.4039 743.368 Q99.2326 746.909 102.844 746.909 Q106.478 746.909 108.283 743.368 Q110.112 739.803 110.112 732.696 Q110.112 725.567 108.283 722.025 Q106.478 718.46 102.844 718.46 M102.844 714.757 Q108.654 714.757 111.709 719.363 Q114.788 723.946 114.788 732.696 Q114.788 741.423 111.709 746.03 Q108.654 750.613 102.844 750.613 Q97.0335 750.613 93.9549 746.03 Q90.8993 741.423 90.8993 732.696 Q90.8993 723.946 93.9549 719.363 Q97.0335 714.757 102.844 714.757 Z" fill="#000000" fill-rule="evenodd" fill-opacity="1" /><path clip-path="url(#clip330)" d="M123.006 744.062 L127.89 744.062 L127.89 749.942 L123.006 749.942 L123.006 744.062 Z" fill="#000000" fill-rule="evenodd" fill-opacity="1" /><path clip-path="url(#clip330)" d="M148.075 718.46 Q144.464 718.46 142.635 722.025 Q140.83 725.567 140.83 732.696 Q140.83 739.803 142.635 743.368 Q144.464 746.909 148.075 746.909 Q151.709 746.909 153.515 743.368 Q155.343 739.803 155.343 732.696 Q155.343 725.567 153.515 722.025 Q151.709 718.46 148.075 718.46 M148.075 714.757 Q153.885 714.757 156.941 719.363 Q160.019 723.946 160.019 732.696 Q160.019 741.423 156.941 746.03 Q153.885 750.613 148.075 750.613 Q142.265 750.613 139.186 746.03 Q136.131 741.423 136.131 732.696 Q136.131 723.946 139.186 719.363 Q142.265 714.757 148.075 714.757 Z" fill="#000000" fill-rule="evenodd" fill-opacity="1" /><path clip-path="url(#clip330)" d="M172.265 746.006 L188.584 746.006 L188.584 749.942 L166.64 749.942 L166.64 746.006 Q169.302 743.252 173.885 738.622 Q178.491 733.969 179.672 732.627 Q181.917 730.104 182.797 728.368 Q183.7 726.608 183.7 724.919 Q183.7 722.164 181.755 720.428 Q179.834 718.692 176.732 718.692 Q174.533 718.692 172.079 719.456 Q169.649 720.22 166.871 721.77 L166.871 717.048 Q169.695 715.914 172.149 715.335 Q174.603 714.757 176.64 714.757 Q182.01 714.757 185.204 717.442 Q188.399 720.127 188.399 724.618 Q188.399 726.747 187.589 728.669 Q186.802 730.567 184.695 733.159 Q184.116 733.831 181.015 737.048 Q177.913 740.243 172.265 746.006 Z" fill="#000000" fill-rule="evenodd" fill-opacity="1" /><path clip-path="url(#clip330)" d="M101.246 373.485 Q97.6354 373.485 95.8067 377.05 Q94.0012 380.592 94.0012 387.721 Q94.0012 394.828 95.8067 398.392 Q97.6354 401.934 101.246 401.934 Q104.881 401.934 106.686 398.392 Q108.515 394.828 108.515 387.721 Q108.515 380.592 106.686 377.05 Q104.881 373.485 101.246 373.485 M101.246 369.781 Q107.057 369.781 110.112 374.388 Q113.191 378.971 113.191 387.721 Q113.191 396.448 110.112 401.054 Q107.057 405.638 101.246 405.638 Q95.4363 405.638 92.3576 401.054 Q89.3021 396.448 89.3021 387.721 Q89.3021 378.971 92.3576 374.388 Q95.4363 369.781 101.246 369.781 Z" fill="#000000" fill-rule="evenodd" fill-opacity="1" /><path clip-path="url(#clip330)" d="M121.408 399.087 L126.293 399.087 L126.293 404.966 L121.408 404.966 L121.408 399.087 Z" fill="#000000" fill-rule="evenodd" fill-opacity="1" /><path clip-path="url(#clip330)" d="M146.478 373.485 Q142.867 373.485 141.038 377.05 Q139.232 380.592 139.232 387.721 Q139.232 394.828 141.038 398.392 Q142.867 401.934 146.478 401.934 Q150.112 401.934 151.918 398.392 Q153.746 394.828 153.746 387.721 Q153.746 380.592 151.918 377.05 Q150.112 373.485 146.478 373.485 M146.478 369.781 Q152.288 369.781 155.343 374.388 Q158.422 378.971 158.422 387.721 Q158.422 396.448 155.343 401.054 Q152.288 405.638 146.478 405.638 Q140.668 405.638 137.589 401.054 Q134.533 396.448 134.533 387.721 Q134.533 378.971 137.589 374.388 Q140.668 369.781 146.478 369.781 Z" fill="#000000" fill-rule="evenodd" fill-opacity="1" /><path clip-path="url(#clip330)" d="M176.64 373.485 Q173.029 373.485 171.2 377.05 Q169.394 380.592 169.394 387.721 Q169.394 394.828 171.2 398.392 Q173.029 401.934 176.64 401.934 Q180.274 401.934 182.079 398.392 Q183.908 394.828 183.908 387.721 Q183.908 380.592 182.079 377.05 Q180.274 373.485 176.64 373.485 M176.64 369.781 Q182.45 369.781 185.505 374.388 Q188.584 378.971 188.584 387.721 Q188.584 396.448 185.505 401.054 Q182.45 405.638 176.64 405.638 Q170.829 405.638 167.751 401.054 Q164.695 396.448 164.695 387.721 Q164.695 378.971 167.751 374.388 Q170.829 369.781 176.64 369.781 Z" fill="#000000" fill-rule="evenodd" fill-opacity="1" /><polyline clip-path="url(#clip332)" style="stroke:#009af9; stroke-linecap:round; stroke-linejoin:round; stroke-width:4; stroke-opacity:1; fill:none" points="
  284.815,147.677 310.889,270.684 336.964,375.121 363.038,450.011 389.112,526.241 415.186,87.9763 441.26,445.067 467.334,436.866 493.408,787.562 519.483,494.223 
  545.557,443.421 571.631,1271.22 597.705,812.06 623.779,880.928 649.853,722.502 675.927,596.896 702.002,673.214 728.076,751.574 754.15,605.994 780.224,568.609 
  806.298,530.104 832.372,500.096 858.447,643.448 884.521,840.43 910.595,756.426 936.669,571.498 962.743,784.863 988.817,911.806 1014.89,885.39 1040.97,947.937 
  1067.04,658.315 1093.11,716.229 1119.19,494.156 1145.26,1191 1171.34,651.039 1197.41,756.373 1223.48,801.633 1249.56,662.479 1275.63,779.237 1301.71,875.356 
  1327.78,802.756 1353.86,1049.47 1379.93,982.88 1406,1006.21 1432.08,844.15 1458.15,877.153 1484.23,853.604 1510.3,953.34 1536.37,999.667 1562.45,893.14 
  1588.52,1009.26 1614.6,1445.72 1640.67,1061.31 1666.75,847.32 1692.82,867.062 1718.89,962.91 1744.97,955.333 1771.04,894.688 1797.12,950.111 1823.19,939.568 
  1849.26,827.345 1875.34,913.957 1901.41,1043.46 1927.49,958.674 1953.56,827.283 1979.63,923.336 2005.71,734.535 2031.78,998.74 2057.86,931.6 2083.93,1145.99 
  2110.01,589.325 2136.08,1147.66 2162.15,1045.79 2188.23,414.971 2214.3,577.587 2240.38,865.709 2266.45,628.516 2292.52,692.344 
  "/>
<polyline clip-path="url(#clip332)" style="stroke:#e26f46; stroke-linecap:round; stroke-linejoin:round; stroke-width:4; stroke-opacity:1; fill:none" points="
  284.815,560.705 310.889,401.716 336.964,386.497 363.038,443.215 389.112,479.697 415.186,514.25 441.26,375.038 467.334,420.302 493.408,479.864 519.483,589.591 
  545.557,552.045 571.631,485.718 597.705,750.936 623.779,746.231 649.853,694.865 675.927,661.228 702.002,595.004 728.076,601.265 754.15,641.802 780.224,609.439 
  806.298,576.137 832.372,559.189 858.447,544.115 884.521,586.214 910.595,676.552 936.669,686.038 962.743,613.115 988.817,651.589 1014.89,738.499 1040.97,751.682 
  1067.04,768.241 1093.11,685.779 1119.19,660.073 1145.26,604.056 1171.34,785.553 1197.41,757.482 1223.48,677.663 1249.56,717.375 1275.63,690.253 1301.71,702.256 
  1327.78,753.282 1353.86,749.449 1379.93,815.639 1406,849.875 1432.08,843.884 1458.15,803.844 1484.23,784.699 1510.3,791.015 1536.37,819.856 1562.45,857.779 
  1588.52,842.008 1614.6,858.226 1640.67,1022.51 1666.75,996.668 1692.82,851.28 1718.89,821.848 1744.97,863.165 1771.04,884.031 1797.12,866.266 1823.19,875.358 
  1849.26,886.436 1875.34,851.954 1901.41,858.115 1927.49,918.333 1953.56,920.507 1979.63,870.162 2005.71,873.28 2031.78,840.263 2057.86,885.695 2083.93,916.607 
  2110.01,964.682 2136.08,859.18 2162.15,890.545 2188.23,984.43 2214.3,805.438 2240.38,733.208 2266.45,833.384 2292.52,812.566 
  "/>
<path clip-path="url(#clip330)" d="
M1850.54 250.738 L2281.82 250.738 L2281.82 95.2176 L1850.54 95.2176  Z
  " fill="#ffffff" fill-rule="evenodd" fill-opacity="1"/>
<polyline clip-path="url(#clip330)" style="stroke:#000000; stroke-linecap:round; stroke-linejoin:round; stroke-width:4; stroke-opacity:1; fill:none" points="
  1850.54,250.738 2281.82,250.738 2281.82,95.2176 1850.54,95.2176 1850.54,250.738 
  "/>
<polyline clip-path="url(#clip330)" style="stroke:#009af9; stroke-linecap:round; stroke-linejoin:round; stroke-width:4; stroke-opacity:1; fill:none" points="
  1874.19,147.058 2016.06,147.058 
  "/>
<path clip-path="url(#clip330)" d="M2044.39 133.62 L2044.39 160.495 L2050.03 160.495 Q2057.19 160.495 2060.5 157.254 Q2063.83 154.014 2063.83 147.023 Q2063.83 140.078 2060.5 136.861 Q2057.19 133.62 2050.03 133.62 L2044.39 133.62 M2039.71 129.778 L2049.32 129.778 Q2059.36 129.778 2064.06 133.967 Q2068.76 138.134 2068.76 147.023 Q2068.76 155.958 2064.04 160.148 Q2059.32 164.338 2049.32 164.338 L2039.71 164.338 L2039.71 129.778 Z" fill="#000000" fill-rule="evenodd" fill-opacity="1" /><path clip-path="url(#clip330)" d="M2087.81 151.305 Q2082.65 151.305 2080.66 152.486 Q2078.67 153.666 2078.67 156.514 Q2078.67 158.782 2080.15 160.125 Q2081.65 161.444 2084.22 161.444 Q2087.77 161.444 2089.9 158.944 Q2092.05 156.421 2092.05 152.254 L2092.05 151.305 L2087.81 151.305 M2096.31 149.546 L2096.31 164.338 L2092.05 164.338 L2092.05 160.402 Q2090.59 162.763 2088.41 163.898 Q2086.24 165.009 2083.09 165.009 Q2079.11 165.009 2076.75 162.787 Q2074.41 160.541 2074.41 156.791 Q2074.41 152.416 2077.33 150.194 Q2080.27 147.972 2086.08 147.972 L2092.05 147.972 L2092.05 147.555 Q2092.05 144.615 2090.1 143.018 Q2088.18 141.398 2084.69 141.398 Q2082.46 141.398 2080.36 141.93 Q2078.25 142.463 2076.31 143.527 L2076.31 139.592 Q2078.65 138.69 2080.84 138.25 Q2083.04 137.787 2085.13 137.787 Q2090.75 137.787 2093.53 140.703 Q2096.31 143.62 2096.31 149.546 Z" fill="#000000" fill-rule="evenodd" fill-opacity="1" /><path clip-path="url(#clip330)" d="M2109.29 131.051 L2109.29 138.412 L2118.07 138.412 L2118.07 141.722 L2109.29 141.722 L2109.29 155.796 Q2109.29 158.967 2110.15 159.87 Q2111.03 160.773 2113.69 160.773 L2118.07 160.773 L2118.07 164.338 L2113.69 164.338 Q2108.76 164.338 2106.89 162.509 Q2105.01 160.657 2105.01 155.796 L2105.01 141.722 L2101.89 141.722 L2101.89 138.412 L2105.01 138.412 L2105.01 131.051 L2109.29 131.051 Z" fill="#000000" fill-rule="evenodd" fill-opacity="1" /><path clip-path="url(#clip330)" d="M2135.45 151.305 Q2130.29 151.305 2128.3 152.486 Q2126.31 153.666 2126.31 156.514 Q2126.31 158.782 2127.79 160.125 Q2129.29 161.444 2131.86 161.444 Q2135.4 161.444 2137.53 158.944 Q2139.69 156.421 2139.69 152.254 L2139.69 151.305 L2135.45 151.305 M2143.95 149.546 L2143.95 164.338 L2139.69 164.338 L2139.69 160.402 Q2138.23 162.763 2136.05 163.898 Q2133.88 165.009 2130.73 165.009 Q2126.75 165.009 2124.39 162.787 Q2122.05 160.541 2122.05 156.791 Q2122.05 152.416 2124.96 150.194 Q2127.9 147.972 2133.71 147.972 L2139.69 147.972 L2139.69 147.555 Q2139.69 144.615 2137.74 143.018 Q2135.82 141.398 2132.33 141.398 Q2130.1 141.398 2128 141.93 Q2125.89 142.463 2123.95 143.527 L2123.95 139.592 Q2126.28 138.69 2128.48 138.25 Q2130.68 137.787 2132.77 137.787 Q2138.39 137.787 2141.17 140.703 Q2143.95 143.62 2143.95 149.546 Z" fill="#000000" fill-rule="evenodd" fill-opacity="1" /><polyline clip-path="url(#clip330)" style="stroke:#e26f46; stroke-linecap:round; stroke-linejoin:round; stroke-width:4; stroke-opacity:1; fill:none" points="
  1874.19,198.898 2016.06,198.898 
  "/>
<path clip-path="url(#clip330)" d="M2039.71 181.618 L2059.57 181.618 L2059.57 185.553 L2044.39 185.553 L2044.39 195.738 L2058.09 195.738 L2058.09 199.673 L2044.39 199.673 L2044.39 216.178 L2039.71 216.178 L2039.71 181.618 Z" fill="#000000" fill-rule="evenodd" fill-opacity="1" /><path clip-path="url(#clip330)" d="M2075.15 193.238 Q2071.72 193.238 2069.73 195.923 Q2067.74 198.585 2067.74 203.238 Q2067.74 207.891 2069.71 210.576 Q2071.7 213.238 2075.15 213.238 Q2078.55 213.238 2080.54 210.553 Q2082.53 207.867 2082.53 203.238 Q2082.53 198.631 2080.54 195.946 Q2078.55 193.238 2075.15 193.238 M2075.15 189.627 Q2080.71 189.627 2083.88 193.238 Q2087.05 196.849 2087.05 203.238 Q2087.05 209.604 2083.88 213.238 Q2080.71 216.849 2075.15 216.849 Q2069.57 216.849 2066.4 213.238 Q2063.25 209.604 2063.25 203.238 Q2063.25 196.849 2066.4 193.238 Q2069.57 189.627 2075.15 189.627 Z" fill="#000000" fill-rule="evenodd" fill-opacity="1" /><path clip-path="url(#clip330)" d="M2109.13 194.233 Q2108.41 193.817 2107.56 193.631 Q2106.72 193.423 2105.71 193.423 Q2102.09 193.423 2100.15 195.784 Q2098.23 198.122 2098.23 202.52 L2098.23 216.178 L2093.95 216.178 L2093.95 190.252 L2098.23 190.252 L2098.23 194.28 Q2099.57 191.918 2101.72 190.784 Q2103.88 189.627 2106.96 189.627 Q2107.4 189.627 2107.93 189.696 Q2108.46 189.743 2109.11 189.858 L2109.13 194.233 Z" fill="#000000" fill-rule="evenodd" fill-opacity="1" /><path clip-path="url(#clip330)" d="M2134.73 202.15 L2134.73 204.233 L2115.15 204.233 Q2115.43 208.631 2117.79 210.946 Q2120.17 213.238 2124.41 213.238 Q2126.86 213.238 2129.15 212.636 Q2131.47 212.034 2133.74 210.83 L2133.74 214.858 Q2131.45 215.83 2129.04 216.34 Q2126.63 216.849 2124.15 216.849 Q2117.95 216.849 2114.32 213.238 Q2110.71 209.627 2110.71 203.469 Q2110.71 197.104 2114.13 193.377 Q2117.58 189.627 2123.41 189.627 Q2128.65 189.627 2131.68 193.006 Q2134.73 196.363 2134.73 202.15 M2130.47 200.9 Q2130.43 197.405 2128.51 195.321 Q2126.61 193.238 2123.46 193.238 Q2119.9 193.238 2117.74 195.252 Q2115.61 197.266 2115.29 200.923 L2130.47 200.9 Z" fill="#000000" fill-rule="evenodd" fill-opacity="1" /><path clip-path="url(#clip330)" d="M2160.38 191.247 L2160.38 195.229 Q2158.58 194.233 2156.75 193.747 Q2154.94 193.238 2153.09 193.238 Q2148.95 193.238 2146.65 195.877 Q2144.36 198.492 2144.36 203.238 Q2144.36 207.983 2146.65 210.622 Q2148.95 213.238 2153.09 213.238 Q2154.94 213.238 2156.75 212.752 Q2158.58 212.242 2160.38 211.247 L2160.38 215.182 Q2158.6 216.016 2156.68 216.432 Q2154.78 216.849 2152.63 216.849 Q2146.77 216.849 2143.32 213.168 Q2139.87 209.488 2139.87 203.238 Q2139.87 196.895 2143.34 193.261 Q2146.84 189.627 2152.9 189.627 Q2154.87 189.627 2156.75 190.043 Q2158.62 190.437 2160.38 191.247 Z" fill="#000000" fill-rule="evenodd" fill-opacity="1" /><path clip-path="url(#clip330)" d="M2179.57 203.145 Q2174.41 203.145 2172.42 204.326 Q2170.43 205.506 2170.43 208.354 Q2170.43 210.622 2171.91 211.965 Q2173.41 213.284 2175.98 213.284 Q2179.52 213.284 2181.65 210.784 Q2183.81 208.261 2183.81 204.094 L2183.81 203.145 L2179.57 203.145 M2188.07 201.386 L2188.07 216.178 L2183.81 216.178 L2183.81 212.242 Q2182.35 214.603 2180.17 215.738 Q2178 216.849 2174.85 216.849 Q2170.87 216.849 2168.51 214.627 Q2166.17 212.381 2166.17 208.631 Q2166.17 204.256 2169.08 202.034 Q2172.02 199.812 2177.83 199.812 L2183.81 199.812 L2183.81 199.395 Q2183.81 196.455 2181.86 194.858 Q2179.94 193.238 2176.45 193.238 Q2174.22 193.238 2172.12 193.77 Q2170.01 194.303 2168.07 195.367 L2168.07 191.432 Q2170.4 190.53 2172.6 190.09 Q2174.8 189.627 2176.89 189.627 Q2182.51 189.627 2185.29 192.543 Q2188.07 195.46 2188.07 201.386 Z" fill="#000000" fill-rule="evenodd" fill-opacity="1" /><path clip-path="url(#clip330)" d="M2213.37 191.016 L2213.37 195.043 Q2211.56 194.117 2209.62 193.655 Q2207.67 193.192 2205.59 193.192 Q2202.42 193.192 2200.82 194.164 Q2199.25 195.136 2199.25 197.08 Q2199.25 198.562 2200.38 199.418 Q2201.52 200.252 2204.94 201.016 L2206.4 201.34 Q2210.94 202.312 2212.83 204.094 Q2214.76 205.854 2214.76 209.025 Q2214.76 212.636 2211.89 214.742 Q2209.04 216.849 2204.04 216.849 Q2201.95 216.849 2199.69 216.432 Q2197.44 216.039 2194.94 215.228 L2194.94 210.83 Q2197.3 212.057 2199.59 212.682 Q2201.89 213.284 2204.13 213.284 Q2207.14 213.284 2208.76 212.266 Q2210.38 211.224 2210.38 209.349 Q2210.38 207.613 2209.2 206.687 Q2208.04 205.761 2204.08 204.904 L2202.6 204.557 Q2198.64 203.724 2196.89 202.011 Q2195.13 200.275 2195.13 197.266 Q2195.13 193.608 2197.72 191.618 Q2200.31 189.627 2205.08 189.627 Q2207.44 189.627 2209.52 189.974 Q2211.61 190.321 2213.37 191.016 Z" fill="#000000" fill-rule="evenodd" fill-opacity="1" /><path clip-path="url(#clip330)" d="M2225.75 182.891 L2225.75 190.252 L2234.52 190.252 L2234.52 193.562 L2225.75 193.562 L2225.75 207.636 Q2225.75 210.807 2226.61 211.71 Q2227.49 212.613 2230.15 212.613 L2234.52 212.613 L2234.52 216.178 L2230.15 216.178 Q2225.22 216.178 2223.34 214.349 Q2221.47 212.497 2221.47 207.636 L2221.47 193.562 L2218.34 193.562 L2218.34 190.252 L2221.47 190.252 L2221.47 182.891 L2225.75 182.891 Z" fill="#000000" fill-rule="evenodd" fill-opacity="1" /></svg>
